<svg width="150" height="150" xmlns="http://www.w3.org/2000/svg" xmlns:xlink="http://www.w3.org/1999/xlink" version="1.1" id="Capa_1" x="0px" y="0px" viewBox="0 0 56 56"  xml:space="preserve">
<g transform="translate(1, -2)">

  <radialGradient xmlns="http://www.w3.org/2000/svg" id="selectedGrad">
    <stop offset="60%" stop-color="#D75A4A" stop-opacity="0.9"/>
    <stop offset="90%" stop-color="#fff" stop-opacity="0.2"/>
    <stop offset="100%" stop-color="#fff" stop-opacity="0"/>
  </radialGradient>

	<circle fill="url(#selectedGrad)" cx="27" cy="30.5" r="28" />
	<circle style="fill:#D75A4A;" cx="27" cy="30.5" r="24"/>
	<path style="fill:#E57E25;" d="M48.971,20.841c-0.925-2.1-2.139-4.042-3.597-5.776C38.436,16.169,24,18.5,24,18.5L48.971,20.841z"/>
	<path style="fill:#E57E25;" d="M48.171,41.809c0.984-1.839,1.732-3.821,2.212-5.907L18,39.5C18,39.5,37.048,40.92,48.171,41.809z"/>
	<path style="fill:#E57E25;" d="M3.362,26.371C3.129,27.713,3,29.091,3,30.5c0,0.544,0.025,1.082,0.06,1.617L24,29.5   C24,29.5,11.372,27.548,3.362,26.371z"/>
</g>
</svg>