<svg width="15" height="15" style="fill:#8c7b78;" xmlns="http://www.w3.org/2000/svg" xmlns:xlink="http://www.w3.org/1999/xlink" version="1.1" x="0px" y="0px" viewBox="0 0 1000 1000" enable-background="new 0 0 1000 1000" xml:space="preserve">
<g><g transform="translate(0.000000,511.000000) scale(0.100000,-0.100000)">

  <path d="M8946.9,4689.2c-26.9-3.8-113.1-17.3-191.7-28.8c-460.2-67.1-1167.7-356.6-1900.1-774.6c-337.5-193.7-1008.5-640.4-1369-910.7c-308.7-233.9-661.5-513.8-661.5-527.3c0-5.7,61.4-40.3,136.1-76.7c573.3-289.5,1146.6-745.8,1530-1223.3c278-345.1,533-780.4,701.7-1198.4l80.5-197.5L7510.8-2.6c1094.8,1131.2,1963.4,2392.9,2260.6,3278.7c230.1,692.2,151.5,1138.9-235.8,1328.7C9380.2,4679.6,9132.9,4716,8946.9,4689.2z M8283.5,4324.8c456.3-274.2,928-788,1175.3-1278.9l67.1-136.1l-63.3-128.5l-61.4-130.4l-103.5,214.7c-270.3,559.9-697.9,1023.9-1225.2,1330.6c-88.2,49.8-161.1,97.8-161.1,103.5c0,15.3,189.8,90.1,230.1,92C8157,4393.9,8222.2,4363.2,8283.5,4324.8z M7875.1,3439c596.3-164.9,866.7-868.6,533-1386.2c-30.7-49.9-97.8-128.5-147.6-174.5c-184.1-172.6-372-245.4-628.9-245.4c-820.6,0-1232.9,983.6-653.8,1562.6C7223.2,3441,7549.2,3529.1,7875.1,3439z"/>
  <path d="M4168.9,1887.9c-86.3-78.6-170.6-155.3-186-168.7c-23-23-11.5-34.5,80.5-74.8c143.8-63.3,492.8-264.6,646.2-372c504.2-352.8,981.7-857.1,1301.9-1370.9c111.2-180.2,312.5-584.8,377.7-765c30.7-82.4,63.3-149.6,74.8-149.6c9.6,1.9,95.9,74.8,189.8,163L6824.4-691l-80.5,237.8c-348.9,1022-1069.9,1840.7-2042,2318.1C4305,2058.5,4356.8,2056.6,4168.9,1887.9z"/>
  <path d="M2642.7,1479.5c-408.4-109.3-891.6-404.6-1451.4-887.7C934.3,371.3,476-67.8,393.6-171.4l-59.4-76.7l101.6,42.2C769.4-73.6,1035.9-16,1319.7-16c304.9,0,515.8-76.7,678.7-243.5l84.4-86.3l-86.3-116.9c-216.7-299.1-418-594.4-419.9-617.4c0-13.4,65.2-99.7,147.6-189.8c80.5-88.2,147.6-168.7,147.6-178.3c0-7.7-55.6-67.1-126.5-132.3l-128.5-115l617.4-674.9c341.3-372,625.1-674.9,630.8-674.9c7.7,0,70.9,51.8,141.9,115l126.5,115l164.9-178.3l163-176.4l128.5,67.1c70.9,36.4,245.4,138.1,389.2,224.3l260.8,157.2l90.1-94c126.5-136.1,172.6-266.5,184.1-521.5c13.4-312.5-61.4-607.8-243.5-983.6c-42.2-84.4-74.8-155.3-72.9-157.2c13.4-13.4,711.3,594.4,949.1,826.4c546.4,533,864.7,972.1,1002.8,1382.4c65.2,189.8,65.2,475.5,1.9,613.5c-24.9,53.7-69,122.7-99.7,153.4c-38.3,38.3-80.5,130.4-134.2,287.6C5541.7-115.8,4719.2,766.2,3655,1213c-57.5,23-141.9,76.7-187.9,118.9c-141.9,126.5-270.4,174.5-492.8,180.2C2830.6,1515.9,2748.1,1508.3,2642.7,1479.5z M4445,18.5c145.7-67.1,274.2-189.8,347-331.7c57.5-107.4,61.4-128.5,61.4-316.4c0-182.1-5.7-210.9-53.7-306.8c-70.9-138.1-201.3-270.4-337.5-337.5c-97.8-51.7-124.6-55.6-308.7-55.6c-166.8,1.9-216.7,9.6-293.4,44.1c-126.5,57.5-283.8,210.9-350.9,343.2c-51.8,101.6-55.6,128.4-55.6,312.5c0,182.1,5.8,210.9,53.7,306.8c88.2,172.6,207.1,279.9,395,358.5C4053.8,99,4287.8,91.3,4445,18.5z"/>
  <path style="fill: #fdca44;" d="M1402.1-2109.8c-214.8-151.5-548.4-479.3-678.7-665.3c-53.7-78.6-94-145.7-90.1-149.6c3.8-5.8,53.7,5.8,109.3,21.1c126.5,38.3,266.5,40.3,266.5,3.8c0-30.7-53.7-99.7-278-366.2c-287.6-339.4-481.3-659.6-602-991.3c-38.3-109.3-38.3-111.2-1.9-111.2c72.9,0,439.1,132.3,634.6,230.1c189.8,95.9,372,210.9,715.2,452.5c134.2,94,155.3,103.5,180.2,76.7c24.9-24.9,23-46-21.1-186c-26.9-88.2-46-163-42.2-168.7c11.5-11.5,247.3,132.3,389.2,237.8c157.2,115,414.2,360.5,527.3,506.2l88.2,113.1L2148-2612.1c-249.3,274.2-479.3,525.4-513.8,559.9l-61.4,63.3L1402.1-2109.8z"/></g></g>
</svg>